<svg width="13" height="8" viewBox="0 0 13 8" fill="none" xmlns="http://www.w3.org/2000/svg">
<path d="M12.1633 0.558287C11.95 0.349572 11.6615 0.232422 11.3607 0.232422C11.06 0.232422 10.7715 0.349572 10.5582 0.558287L6.47154 4.52525L2.44179 0.558287C2.22851 0.349572 1.93999 0.232422 1.63926 0.232422C1.33852 0.232422 1.05 0.349572 0.836721 0.558287C0.730026 0.662463 0.645339 0.786403 0.587547 0.92296C0.529754 1.05952 0.5 1.20599 0.5 1.35392C0.5 1.50186 0.529754 1.64833 0.587547 1.78488C0.645339 1.92144 0.730026 2.04538 0.836721 2.14956L5.66331 6.90095C5.76914 7.00598 5.89504 7.08935 6.03376 7.14624C6.17248 7.20313 6.32127 7.23242 6.47154 7.23242C6.62182 7.23242 6.7706 7.20313 6.90932 7.14624C7.04804 7.08935 7.17394 7.00598 7.27977 6.90095L12.1633 2.14956C12.27 2.04538 12.3547 1.92144 12.4125 1.78488C12.4702 1.64833 12.5 1.50186 12.5 1.35392C12.5 1.20599 12.4702 1.05952 12.4125 0.92296C12.3547 0.786403 12.27 0.662463 12.1633 0.558287Z" fill="#666666"/>
</svg>
