<svg width="8" height="13" viewBox="0 0 8 13" fill="none" xmlns="http://www.w3.org/2000/svg">
<path d="M3.20717 6.20724L7.17413 2.17528C7.38285 1.96188 7.5 1.6732 7.5 1.3723C7.5 1.0714 7.38285 0.782728 7.17413 0.569328C7.06996 0.462574 6.94602 0.377841 6.80946 0.320016C6.6729 0.262192 6.52643 0.232422 6.3785 0.232422C6.23057 0.232422 6.0841 0.262192 5.94754 0.320016C5.81098 0.377841 5.68704 0.462574 5.58287 0.569328L0.831475 5.39857C0.726442 5.50445 0.643075 5.63042 0.586183 5.76922C0.529291 5.90801 0.5 6.05688 0.5 6.20724C0.5 6.3576 0.529291 6.50647 0.586183 6.64526C0.643075 6.78406 0.726442 6.91003 0.831475 7.01591L5.58287 11.9021C5.68758 12.0077 5.81176 12.0912 5.94829 12.1479C6.08482 12.2045 6.23102 12.2333 6.3785 12.2324C6.52598 12.2333 6.67218 12.2045 6.80871 12.1479C6.94524 12.0912 7.06942 12.0077 7.17413 11.9021C7.38285 11.6887 7.5 11.4 7.5 11.0991C7.5 10.7982 7.38285 10.5096 7.17413 10.2961L3.20717 6.20724Z" fill="#54CDFF"/>
</svg>
