<svg width="8" height="13" viewBox="0 0 8 13" fill="none" xmlns="http://www.w3.org/2000/svg">
<path d="M7.16853 5.4232L2.41713 0.570934C2.31296 0.463671 2.18902 0.378534 2.05246 0.320434C1.9159 0.262334 1.76943 0.232422 1.6215 0.232422C1.47357 0.232422 1.3271 0.262334 1.19054 0.320434C1.05398 0.378534 0.930041 0.463671 0.825865 0.570934C0.61715 0.785353 0.5 1.0754 0.5 1.37774C0.5 1.68007 0.61715 1.97012 0.825865 2.18454L4.79283 6.23573L0.825865 10.2869C0.61715 10.5013 0.5 10.7914 0.5 11.0937C0.5 11.3961 0.61715 11.6861 0.825865 11.9005C0.930575 12.0066 1.05476 12.0905 1.19129 12.1475C1.32782 12.2044 1.47402 12.2333 1.6215 12.2324C1.76898 12.2333 1.91518 12.2044 2.05171 12.1475C2.18824 12.0905 2.31242 12.0066 2.41713 11.9005L7.16853 7.04826C7.27356 6.94187 7.35693 6.8153 7.41382 6.67584C7.47071 6.53639 7.5 6.38681 7.5 6.23573C7.5 6.08466 7.47071 5.93508 7.41382 5.79562C7.35693 5.65616 7.27356 5.52959 7.16853 5.4232Z" fill="#999999"/>
</svg>
